<?xml version="1.0" encoding="utf-8" standalone="no"?>
<!DOCTYPE svg PUBLIC "-//W3C//DTD SVG 1.1//EN"
  "http://www.w3.org/Graphics/SVG/1.1/DTD/svg11.dtd">
<svg xmlns:xlink="http://www.w3.org/1999/xlink" width="832.25pt" height="143.672pt" viewBox="0 0 832.25 143.672" xmlns="http://www.w3.org/2000/svg" version="1.1">
 <metadata>
  <rdf:RDF xmlns:dc="http://purl.org/dc/elements/1.1/" xmlns:cc="http://creativecommons.org/ns#" xmlns:rdf="http://www.w3.org/1999/02/22-rdf-syntax-ns#">
   <cc:Work>
    <dc:type rdf:resource="http://purl.org/dc/dcmitype/StillImage"/>
    <dc:date>2026-07-05T09:36:00.825167</dc:date>
    <dc:format>image/svg+xml</dc:format>
    <dc:creator>
     <cc:Agent>
      <dc:title>Matplotlib v3.10.5, https://matplotlib.org/</dc:title>
     </cc:Agent>
    </dc:creator>
   </cc:Work>
  </rdf:RDF>
 </metadata>
 <defs>
  <style type="text/css">*{stroke-linejoin: round; stroke-linecap: butt}</style>
 </defs>
 <g id="figure_1">
  <g id="patch_1">
   <path d="M 0 143.672 
L 832.25 143.672 
L 832.25 0 
L 0 0 
z
" style="fill: #ffffff"/>
  </g>
  <g id="axes_1">
   <g id="patch_2">
    <path d="M 69.61 72.08 
L 762.64 72.08 
L 762.64 7.2 
L 69.61 7.2 
z
" style="fill: #ffffff"/>
   </g>
   <g id="matplotlib.axis_1">
    <g id="xtick_1">
     <g id="line2d_1">
      <path d="M 101.111364 72.08 
L 101.111364 7.2 
" clip-path="url(#p96a9e51fae)" style="fill: none; stroke: #cccccc; stroke-width: 0.8; stroke-linecap: round"/>
     </g>
     <g id="line2d_2"/>
     <g id="text_1">
      <!-- 0 -->
      <g style="fill: #262626" transform="translate(98.330895 82.737812) scale(0.1 -0.1)">
       <defs>
        <path id="ArialMT-30" d="M 266 2259 
Q 266 3072 433 3567 
Q 600 4063 929 4331 
Q 1259 4600 1759 4600 
Q 2128 4600 2406 4451 
Q 2684 4303 2865 4023 
Q 3047 3744 3150 3342 
Q 3253 2941 3253 2259 
Q 3253 1453 3087 958 
Q 2922 463 2592 192 
Q 2263 -78 1759 -78 
Q 1097 -78 719 397 
Q 266 969 266 2259 
z
M 844 2259 
Q 844 1131 1108 757 
Q 1372 384 1759 384 
Q 2147 384 2411 759 
Q 2675 1134 2675 2259 
Q 2675 3391 2411 3762 
Q 2147 4134 1753 4134 
Q 1366 4134 1134 3806 
Q 844 3388 844 2259 
z
" transform="scale(0.015625)"/>
       </defs>
       <use xlink:href="#ArialMT-30"/>
      </g>
     </g>
    </g>
    <g id="xtick_2">
     <g id="line2d_3">
      <path d="M 227.116818 72.08 
L 227.116818 7.2 
" clip-path="url(#p96a9e51fae)" style="fill: none; stroke: #cccccc; stroke-width: 0.8; stroke-linecap: round"/>
     </g>
     <g id="line2d_4"/>
     <g id="text_2">
      <!-- 20 -->
      <g style="fill: #262626" transform="translate(221.555881 82.737812) scale(0.1 -0.1)">
       <defs>
        <path id="ArialMT-32" d="M 3222 541 
L 3222 0 
L 194 0 
Q 188 203 259 391 
Q 375 700 629 1000 
Q 884 1300 1366 1694 
Q 2113 2306 2375 2664 
Q 2638 3022 2638 3341 
Q 2638 3675 2398 3904 
Q 2159 4134 1775 4134 
Q 1369 4134 1125 3890 
Q 881 3647 878 3216 
L 300 3275 
Q 359 3922 746 4261 
Q 1134 4600 1788 4600 
Q 2447 4600 2831 4234 
Q 3216 3869 3216 3328 
Q 3216 3053 3103 2787 
Q 2991 2522 2730 2228 
Q 2469 1934 1863 1422 
Q 1356 997 1212 845 
Q 1069 694 975 541 
L 3222 541 
z
" transform="scale(0.015625)"/>
       </defs>
       <use xlink:href="#ArialMT-32"/>
       <use xlink:href="#ArialMT-30" transform="translate(55.615234 0)"/>
      </g>
     </g>
    </g>
    <g id="xtick_3">
     <g id="line2d_5">
      <path d="M 353.122273 72.08 
L 353.122273 7.2 
" clip-path="url(#p96a9e51fae)" style="fill: none; stroke: #cccccc; stroke-width: 0.8; stroke-linecap: round"/>
     </g>
     <g id="line2d_6"/>
     <g id="text_3">
      <!-- 40 -->
      <g style="fill: #262626" transform="translate(347.561335 82.737812) scale(0.1 -0.1)">
       <defs>
        <path id="ArialMT-34" d="M 2069 0 
L 2069 1097 
L 81 1097 
L 81 1613 
L 2172 4581 
L 2631 4581 
L 2631 1613 
L 3250 1613 
L 3250 1097 
L 2631 1097 
L 2631 0 
L 2069 0 
z
M 2069 1613 
L 2069 3678 
L 634 1613 
L 2069 1613 
z
" transform="scale(0.015625)"/>
       </defs>
       <use xlink:href="#ArialMT-34"/>
       <use xlink:href="#ArialMT-30" transform="translate(55.615234 0)"/>
      </g>
     </g>
    </g>
    <g id="xtick_4">
     <g id="line2d_7">
      <path d="M 479.127727 72.08 
L 479.127727 7.2 
" clip-path="url(#p96a9e51fae)" style="fill: none; stroke: #cccccc; stroke-width: 0.8; stroke-linecap: round"/>
     </g>
     <g id="line2d_8"/>
     <g id="text_4">
      <!-- 60 -->
      <g style="fill: #262626" transform="translate(473.56679 82.737812) scale(0.1 -0.1)">
       <defs>
        <path id="ArialMT-36" d="M 3184 3459 
L 2625 3416 
Q 2550 3747 2413 3897 
Q 2184 4138 1850 4138 
Q 1581 4138 1378 3988 
Q 1113 3794 959 3422 
Q 806 3050 800 2363 
Q 1003 2672 1297 2822 
Q 1591 2972 1913 2972 
Q 2475 2972 2870 2558 
Q 3266 2144 3266 1488 
Q 3266 1056 3080 686 
Q 2894 316 2569 119 
Q 2244 -78 1831 -78 
Q 1128 -78 684 439 
Q 241 956 241 2144 
Q 241 3472 731 4075 
Q 1159 4600 1884 4600 
Q 2425 4600 2770 4297 
Q 3116 3994 3184 3459 
z
M 888 1484 
Q 888 1194 1011 928 
Q 1134 663 1356 523 
Q 1578 384 1822 384 
Q 2178 384 2434 671 
Q 2691 959 2691 1453 
Q 2691 1928 2437 2201 
Q 2184 2475 1800 2475 
Q 1419 2475 1153 2201 
Q 888 1928 888 1484 
z
" transform="scale(0.015625)"/>
       </defs>
       <use xlink:href="#ArialMT-36"/>
       <use xlink:href="#ArialMT-30" transform="translate(55.615234 0)"/>
      </g>
     </g>
    </g>
    <g id="xtick_5">
     <g id="line2d_9">
      <path d="M 605.133182 72.08 
L 605.133182 7.2 
" clip-path="url(#p96a9e51fae)" style="fill: none; stroke: #cccccc; stroke-width: 0.8; stroke-linecap: round"/>
     </g>
     <g id="line2d_10"/>
     <g id="text_5">
      <!-- 80 -->
      <g style="fill: #262626" transform="translate(599.572244 82.737812) scale(0.1 -0.1)">
       <defs>
        <path id="ArialMT-38" d="M 1131 2484 
Q 781 2613 612 2850 
Q 444 3088 444 3419 
Q 444 3919 803 4259 
Q 1163 4600 1759 4600 
Q 2359 4600 2725 4251 
Q 3091 3903 3091 3403 
Q 3091 3084 2923 2848 
Q 2756 2613 2416 2484 
Q 2838 2347 3058 2040 
Q 3278 1734 3278 1309 
Q 3278 722 2862 322 
Q 2447 -78 1769 -78 
Q 1091 -78 675 323 
Q 259 725 259 1325 
Q 259 1772 486 2073 
Q 713 2375 1131 2484 
z
M 1019 3438 
Q 1019 3113 1228 2906 
Q 1438 2700 1772 2700 
Q 2097 2700 2305 2904 
Q 2513 3109 2513 3406 
Q 2513 3716 2298 3927 
Q 2084 4138 1766 4138 
Q 1444 4138 1231 3931 
Q 1019 3725 1019 3438 
z
M 838 1322 
Q 838 1081 952 856 
Q 1066 631 1291 507 
Q 1516 384 1775 384 
Q 2178 384 2440 643 
Q 2703 903 2703 1303 
Q 2703 1709 2433 1975 
Q 2163 2241 1756 2241 
Q 1359 2241 1098 1978 
Q 838 1716 838 1322 
z
" transform="scale(0.015625)"/>
       </defs>
       <use xlink:href="#ArialMT-38"/>
       <use xlink:href="#ArialMT-30" transform="translate(55.615234 0)"/>
      </g>
     </g>
    </g>
    <g id="xtick_6">
     <g id="line2d_11">
      <path d="M 731.138636 72.08 
L 731.138636 7.2 
" clip-path="url(#p96a9e51fae)" style="fill: none; stroke: #cccccc; stroke-width: 0.8; stroke-linecap: round"/>
     </g>
     <g id="line2d_12"/>
     <g id="text_6">
      <!-- 100 -->
      <g style="fill: #262626" transform="translate(722.79723 82.737812) scale(0.1 -0.1)">
       <defs>
        <path id="ArialMT-31" d="M 2384 0 
L 1822 0 
L 1822 3584 
Q 1619 3391 1289 3197 
Q 959 3003 697 2906 
L 697 3450 
Q 1169 3672 1522 3987 
Q 1875 4303 2022 4600 
L 2384 4600 
L 2384 0 
z
" transform="scale(0.015625)"/>
       </defs>
       <use xlink:href="#ArialMT-31"/>
       <use xlink:href="#ArialMT-30" transform="translate(55.615234 0)"/>
       <use xlink:href="#ArialMT-30" transform="translate(111.230469 0)"/>
      </g>
     </g>
    </g>
    <g id="text_7">
     <!-- Thời gian di chuyển -->
     <g style="fill: #262626" transform="translate(330.729062 105.029375) scale(0.18 -0.18)">
      <defs>
       <path id="Arial-BoldMT-54" d="M 1497 0 
L 1497 3806 
L 138 3806 
L 138 4581 
L 3778 4581 
L 3778 3806 
L 2422 3806 
L 2422 0 
L 1497 0 
z
" transform="scale(0.015625)"/>
       <path id="Arial-BoldMT-68" d="M 1334 4581 
L 1334 2897 
Q 1759 3394 2350 3394 
Q 2653 3394 2897 3281 
Q 3141 3169 3264 2994 
Q 3388 2819 3433 2606 
Q 3478 2394 3478 1947 
L 3478 0 
L 2600 0 
L 2600 1753 
Q 2600 2275 2550 2415 
Q 2500 2556 2373 2639 
Q 2247 2722 2056 2722 
Q 1838 2722 1666 2615 
Q 1494 2509 1414 2295 
Q 1334 2081 1334 1663 
L 1334 0 
L 456 0 
L 456 4581 
L 1334 4581 
z
" transform="scale(0.015625)"/>
       <path id="Arial-BoldMT-1edd" d="M 1156 1659 
Q 1156 1181 1391 903 
Q 1613 641 1969 641 
Q 2325 641 2544 903 
Q 2778 1181 2778 1666 
Q 2778 2141 2544 2416 
Q 2325 2678 1969 2678 
Q 1613 2678 1391 2416 
Q 1156 2138 1156 1659 
z
M 3672 3319 
L 4550 3319 
L 4550 2691 
Q 4550 2303 4483 2084 
Q 4416 1866 4234 1694 
Q 4025 1491 3663 1375 
Q 3584 816 3197 422 
Q 2709 -75 1972 -75 
Q 1500 -75 1103 131 
Q 681 350 468 742 
Q 256 1134 256 1706 
Q 256 2156 472 2553 
Q 697 2969 1087 3181 
Q 1478 3394 1966 3394 
Q 2719 3394 3200 2906 
Q 3634 2463 3678 1809 
Q 4084 1975 4097 2441 
L 3672 2441 
L 3672 3319 
z
M 2411 3725 
L 1858 3725 
L 995 4659 
L 1980 4659 
L 2411 3725 
z
" transform="scale(0.015625)"/>
       <path id="Arial-BoldMT-69" d="M 459 3769 
L 459 4581 
L 1338 4581 
L 1338 3769 
L 459 3769 
z
M 459 0 
L 459 3319 
L 1338 3319 
L 1338 0 
L 459 0 
z
" transform="scale(0.015625)"/>
       <path id="Arial-BoldMT-20" transform="scale(0.015625)"/>
       <path id="Arial-BoldMT-67" d="M 378 -219 
L 1381 -341 
Q 1406 -516 1497 -581 
Q 1622 -675 1891 -675 
Q 2234 -675 2406 -572 
Q 2522 -503 2581 -350 
Q 2622 -241 2622 53 
L 2622 538 
Q 2228 0 1628 0 
Q 959 0 569 566 
Q 263 1013 263 1678 
Q 263 2513 664 2953 
Q 1066 3394 1663 3394 
Q 2278 3394 2678 2853 
L 2678 3319 
L 3500 3319 
L 3500 341 
Q 3500 -247 3403 -537 
Q 3306 -828 3131 -993 
Q 2956 -1159 2664 -1253 
Q 2372 -1347 1925 -1347 
Q 1081 -1347 728 -1058 
Q 375 -769 375 -325 
Q 375 -281 378 -219 
z
M 1163 1728 
Q 1163 1200 1367 954 
Q 1572 709 1872 709 
Q 2194 709 2416 961 
Q 2638 1213 2638 1706 
Q 2638 2222 2425 2472 
Q 2213 2722 1888 2722 
Q 1572 2722 1367 2476 
Q 1163 2231 1163 1728 
z
" transform="scale(0.015625)"/>
       <path id="Arial-BoldMT-61" d="M 1116 2306 
L 319 2450 
Q 453 2931 781 3162 
Q 1109 3394 1756 3394 
Q 2344 3394 2631 3255 
Q 2919 3116 3036 2902 
Q 3153 2688 3153 2116 
L 3144 1091 
Q 3144 653 3186 445 
Q 3228 238 3344 0 
L 2475 0 
Q 2441 88 2391 259 
Q 2369 338 2359 363 
Q 2134 144 1878 34 
Q 1622 -75 1331 -75 
Q 819 -75 523 203 
Q 228 481 228 906 
Q 228 1188 362 1408 
Q 497 1628 739 1745 
Q 981 1863 1438 1950 
Q 2053 2066 2291 2166 
L 2291 2253 
Q 2291 2506 2166 2614 
Q 2041 2722 1694 2722 
Q 1459 2722 1328 2630 
Q 1197 2538 1116 2306 
z
M 2291 1594 
Q 2122 1538 1756 1459 
Q 1391 1381 1278 1306 
Q 1106 1184 1106 997 
Q 1106 813 1243 678 
Q 1381 544 1594 544 
Q 1831 544 2047 700 
Q 2206 819 2256 991 
Q 2291 1103 2291 1419 
L 2291 1594 
z
" transform="scale(0.015625)"/>
       <path id="Arial-BoldMT-6e" d="M 3478 0 
L 2600 0 
L 2600 1694 
Q 2600 2231 2544 2389 
Q 2488 2547 2361 2634 
Q 2234 2722 2056 2722 
Q 1828 2722 1647 2597 
Q 1466 2472 1398 2265 
Q 1331 2059 1331 1503 
L 1331 0 
L 453 0 
L 453 3319 
L 1269 3319 
L 1269 2831 
Q 1703 3394 2363 3394 
Q 2653 3394 2893 3289 
Q 3134 3184 3257 3021 
Q 3381 2859 3429 2653 
Q 3478 2447 3478 2063 
L 3478 0 
z
" transform="scale(0.015625)"/>
       <path id="Arial-BoldMT-64" d="M 3503 0 
L 2688 0 
L 2688 488 
Q 2484 203 2207 64 
Q 1931 -75 1650 -75 
Q 1078 -75 670 386 
Q 263 847 263 1672 
Q 263 2516 659 2955 
Q 1056 3394 1663 3394 
Q 2219 3394 2625 2931 
L 2625 4581 
L 3503 4581 
L 3503 0 
z
M 1159 1731 
Q 1159 1200 1306 963 
Q 1519 619 1900 619 
Q 2203 619 2415 876 
Q 2628 1134 2628 1647 
Q 2628 2219 2422 2470 
Q 2216 2722 1894 2722 
Q 1581 2722 1370 2473 
Q 1159 2225 1159 1731 
z
" transform="scale(0.015625)"/>
       <path id="Arial-BoldMT-63" d="M 3353 2338 
L 2488 2181 
Q 2444 2441 2289 2572 
Q 2134 2703 1888 2703 
Q 1559 2703 1364 2476 
Q 1169 2250 1169 1719 
Q 1169 1128 1367 884 
Q 1566 641 1900 641 
Q 2150 641 2309 783 
Q 2469 925 2534 1272 
L 3397 1125 
Q 3263 531 2881 228 
Q 2500 -75 1859 -75 
Q 1131 -75 698 384 
Q 266 844 266 1656 
Q 266 2478 700 2936 
Q 1134 3394 1875 3394 
Q 2481 3394 2839 3133 
Q 3197 2872 3353 2338 
z
" transform="scale(0.015625)"/>
       <path id="Arial-BoldMT-75" d="M 2644 0 
L 2644 497 
Q 2463 231 2167 78 
Q 1872 -75 1544 -75 
Q 1209 -75 943 72 
Q 678 219 559 484 
Q 441 750 441 1219 
L 441 3319 
L 1319 3319 
L 1319 1794 
Q 1319 1094 1367 936 
Q 1416 778 1544 686 
Q 1672 594 1869 594 
Q 2094 594 2272 717 
Q 2450 841 2515 1023 
Q 2581 1206 2581 1919 
L 2581 3319 
L 3459 3319 
L 3459 0 
L 2644 0 
z
" transform="scale(0.015625)"/>
       <path id="Arial-BoldMT-79" d="M 44 3319 
L 978 3319 
L 1772 963 
L 2547 3319 
L 3456 3319 
L 2284 125 
L 2075 -453 
Q 1959 -744 1854 -897 
Q 1750 -1050 1614 -1145 
Q 1478 -1241 1279 -1294 
Q 1081 -1347 831 -1347 
Q 578 -1347 334 -1294 
L 256 -606 
Q 463 -647 628 -647 
Q 934 -647 1081 -467 
Q 1228 -288 1306 -9 
L 44 3319 
z
" transform="scale(0.015625)"/>
       <path id="Arial-BoldMT-1ec3" d="M 2381 1056 
L 3256 909 
Q 3088 428 2723 176 
Q 2359 -75 1813 -75 
Q 947 -75 531 491 
Q 203 944 203 1634 
Q 203 2459 634 2926 
Q 1066 3394 1725 3394 
Q 2466 3394 2894 2905 
Q 3322 2416 3303 1406 
L 1103 1406 
Q 1113 1016 1316 798 
Q 1519 581 1822 581 
Q 2028 581 2168 693 
Q 2309 806 2381 1056 
z
M 2431 1944 
Q 2422 2325 2234 2523 
Q 2047 2722 1778 2722 
Q 1491 2722 1303 2513 
Q 1116 2303 1119 1944 
L 2431 1944 
z
M 697 3738 
L 1354 4659 
L 2166 4659 
L 2813 3738 
L 2107 3738 
L 1744 4203 
L 1407 3738 
L 697 3738 
z
M 1569 5094 
Q 1747 5113 1797 5128 
Q 1963 5169 1966 5272 
Q 1969 5344 1879 5394 
Q 1747 5466 1463 5466 
Q 1366 5466 1169 5453 
L 1135 5772 
Q 1257 5797 1585 5794 
Q 1969 5791 2213 5669 
Q 2482 5538 2488 5303 
Q 2500 4978 1919 4906 
L 1919 4750 
L 1569 4750 
L 1569 5094 
z
" transform="scale(0.015625)"/>
      </defs>
      <use xlink:href="#Arial-BoldMT-54"/>
      <use xlink:href="#Arial-BoldMT-68" transform="translate(61.083984 0)"/>
      <use xlink:href="#Arial-BoldMT-1edd" transform="translate(122.167969 0)"/>
      <use xlink:href="#Arial-BoldMT-69" transform="translate(193.261719 0)"/>
      <use xlink:href="#Arial-BoldMT-20" transform="translate(221.044922 0)"/>
      <use xlink:href="#Arial-BoldMT-67" transform="translate(248.828125 0)"/>
      <use xlink:href="#Arial-BoldMT-69" transform="translate(309.912109 0)"/>
      <use xlink:href="#Arial-BoldMT-61" transform="translate(337.695312 0)"/>
      <use xlink:href="#Arial-BoldMT-6e" transform="translate(393.310547 0)"/>
      <use xlink:href="#Arial-BoldMT-20" transform="translate(454.394531 0)"/>
      <use xlink:href="#Arial-BoldMT-64" transform="translate(482.177734 0)"/>
      <use xlink:href="#Arial-BoldMT-69" transform="translate(543.261719 0)"/>
      <use xlink:href="#Arial-BoldMT-20" transform="translate(571.044922 0)"/>
      <use xlink:href="#Arial-BoldMT-63" transform="translate(598.828125 0)"/>
      <use xlink:href="#Arial-BoldMT-68" transform="translate(654.443359 0)"/>
      <use xlink:href="#Arial-BoldMT-75" transform="translate(715.527344 0)"/>
      <use xlink:href="#Arial-BoldMT-79" transform="translate(776.611328 0)"/>
      <use xlink:href="#Arial-BoldMT-1ec3" transform="translate(832.226562 0)"/>
      <use xlink:href="#Arial-BoldMT-6e" transform="translate(887.841797 0)"/>
     </g>
    </g>
   </g>
   <g id="matplotlib.axis_2"/>
   <g id="line2d_13">
    <path d="M 101.111364 39.64 
L 731.138636 39.64 
" clip-path="url(#p96a9e51fae)" style="fill: none; stroke: #000000; stroke-width: 4; stroke-linecap: round"/>
   </g>
   <g id="patch_3">
    <path d="M 321.620909 72.08 
L 542.130455 72.08 
L 542.130455 7.2 
L 321.620909 7.2 
z
" clip-path="url(#p96a9e51fae)" style="fill: #95a5a6; opacity: 0.3; stroke: #95a5a6; stroke-linejoin: miter"/>
   </g>
   <g id="PathCollection_1">
    <defs>
     <path id="m708850ba36" d="M 0 8.660254 
C 2.296726 8.660254 4.499694 7.747755 6.123724 6.123724 
C 7.747755 4.499694 8.660254 2.296726 8.660254 0 
C 8.660254 -2.296726 7.747755 -4.499694 6.123724 -6.123724 
C 4.499694 -7.747755 2.296726 -8.660254 0 -8.660254 
C -2.296726 -8.660254 -4.499694 -7.747755 -6.123724 -6.123724 
C -7.747755 -4.499694 -8.660254 -2.296726 -8.660254 0 
C -8.660254 2.296726 -7.747755 4.499694 -6.123724 6.123724 
C -4.499694 7.747755 -2.296726 8.660254 0 8.660254 
z
" style="stroke: #27ae60"/>
    </defs>
    <g clip-path="url(#p96a9e51fae)">
     <use xlink:href="#m708850ba36" x="132.612727" y="39.64" style="fill: #27ae60; stroke: #27ae60"/>
     <use xlink:href="#m708850ba36" x="151.513545" y="39.64" style="fill: #27ae60; stroke: #27ae60"/>
     <use xlink:href="#m708850ba36" x="170.414364" y="39.64" style="fill: #27ae60; stroke: #27ae60"/>
     <use xlink:href="#m708850ba36" x="189.315182" y="39.64" style="fill: #27ae60; stroke: #27ae60"/>
     <use xlink:href="#m708850ba36" x="208.216" y="39.64" style="fill: #27ae60; stroke: #27ae60"/>
     <use xlink:href="#m708850ba36" x="227.116818" y="39.64" style="fill: #27ae60; stroke: #27ae60"/>
     <use xlink:href="#m708850ba36" x="246.017636" y="39.64" style="fill: #27ae60; stroke: #27ae60"/>
     <use xlink:href="#m708850ba36" x="264.918455" y="39.64" style="fill: #27ae60; stroke: #27ae60"/>
     <use xlink:href="#m708850ba36" x="283.819273" y="39.64" style="fill: #27ae60; stroke: #27ae60"/>
     <use xlink:href="#m708850ba36" x="302.720091" y="39.64" style="fill: #27ae60; stroke: #27ae60"/>
     <use xlink:href="#m708850ba36" x="548.430727" y="39.64" style="fill: #27ae60; stroke: #27ae60"/>
     <use xlink:href="#m708850ba36" x="567.331545" y="39.64" style="fill: #27ae60; stroke: #27ae60"/>
     <use xlink:href="#m708850ba36" x="586.232364" y="39.64" style="fill: #27ae60; stroke: #27ae60"/>
     <use xlink:href="#m708850ba36" x="605.133182" y="39.64" style="fill: #27ae60; stroke: #27ae60"/>
     <use xlink:href="#m708850ba36" x="624.034" y="39.64" style="fill: #27ae60; stroke: #27ae60"/>
     <use xlink:href="#m708850ba36" x="642.934818" y="39.64" style="fill: #27ae60; stroke: #27ae60"/>
     <use xlink:href="#m708850ba36" x="661.835636" y="39.64" style="fill: #27ae60; stroke: #27ae60"/>
     <use xlink:href="#m708850ba36" x="680.736455" y="39.64" style="fill: #27ae60; stroke: #27ae60"/>
    </g>
   </g>
   <g id="PathCollection_2">
    <defs>
     <path id="m5349bf4507" d="M -8.660254 8.660254 
L 8.660254 -8.660254 
M -8.660254 -8.660254 
L 8.660254 8.660254 
" style="stroke: #c0392b; stroke-width: 5"/>
    </defs>
    <g clip-path="url(#p96a9e51fae)">
     <use xlink:href="#m5349bf4507" x="321.620909" y="39.64" style="fill: #c0392b; stroke: #c0392b; stroke-width: 5"/>
     <use xlink:href="#m5349bf4507" x="340.521727" y="39.64" style="fill: #c0392b; stroke: #c0392b; stroke-width: 5"/>
     <use xlink:href="#m5349bf4507" x="359.422545" y="39.64" style="fill: #c0392b; stroke: #c0392b; stroke-width: 5"/>
     <use xlink:href="#m5349bf4507" x="378.323364" y="39.64" style="fill: #c0392b; stroke: #c0392b; stroke-width: 5"/>
     <use xlink:href="#m5349bf4507" x="397.224182" y="39.64" style="fill: #c0392b; stroke: #c0392b; stroke-width: 5"/>
     <use xlink:href="#m5349bf4507" x="416.125" y="39.64" style="fill: #c0392b; stroke: #c0392b; stroke-width: 5"/>
     <use xlink:href="#m5349bf4507" x="435.025818" y="39.64" style="fill: #c0392b; stroke: #c0392b; stroke-width: 5"/>
     <use xlink:href="#m5349bf4507" x="453.926636" y="39.64" style="fill: #c0392b; stroke: #c0392b; stroke-width: 5"/>
     <use xlink:href="#m5349bf4507" x="472.827455" y="39.64" style="fill: #c0392b; stroke: #c0392b; stroke-width: 5"/>
     <use xlink:href="#m5349bf4507" x="491.728273" y="39.64" style="fill: #c0392b; stroke: #c0392b; stroke-width: 5"/>
     <use xlink:href="#m5349bf4507" x="510.629091" y="39.64" style="fill: #c0392b; stroke: #c0392b; stroke-width: 5"/>
     <use xlink:href="#m5349bf4507" x="529.529909" y="39.64" style="fill: #c0392b; stroke: #c0392b; stroke-width: 5"/>
    </g>
   </g>
   <g id="patch_4">
    <path d="M 69.61 72.08 
L 69.61 7.2 
" style="fill: none; stroke: #cccccc; stroke-linejoin: miter; stroke-linecap: square"/>
   </g>
   <g id="patch_5">
    <path d="M 762.64 72.08 
L 762.64 7.2 
" style="fill: none; stroke: #cccccc; stroke-linejoin: miter; stroke-linecap: square"/>
   </g>
   <g id="patch_6">
    <path d="M 69.61 72.08 
L 762.64 72.08 
" style="fill: none; stroke: #cccccc; stroke-linejoin: miter; stroke-linecap: square"/>
   </g>
   <g id="patch_7">
    <path d="M 69.61 7.2 
L 762.64 7.2 
" style="fill: none; stroke: #cccccc; stroke-linejoin: miter; stroke-linecap: square"/>
   </g>
   <g id="legend_1">
    <g id="PathCollection_3">
     <g>
      <use xlink:href="#m708850ba36" x="29.6" y="122.5045" style="fill: #27ae60; stroke: #27ae60"/>
     </g>
    </g>
    <g id="text_8">
     <!-- Gói dữ liệu thành công -->
     <g style="fill: #262626" transform="translate(58.4 126.7045) scale(0.16 -0.16)">
      <defs>
       <path id="ArialMT-47" d="M 2638 1797 
L 2638 2334 
L 4578 2338 
L 4578 638 
Q 4131 281 3656 101 
Q 3181 -78 2681 -78 
Q 2006 -78 1454 211 
Q 903 500 622 1047 
Q 341 1594 341 2269 
Q 341 2938 620 3517 
Q 900 4097 1425 4378 
Q 1950 4659 2634 4659 
Q 3131 4659 3532 4498 
Q 3934 4338 4162 4050 
Q 4391 3763 4509 3300 
L 3963 3150 
Q 3859 3500 3706 3700 
Q 3553 3900 3268 4020 
Q 2984 4141 2638 4141 
Q 2222 4141 1919 4014 
Q 1616 3888 1430 3681 
Q 1244 3475 1141 3228 
Q 966 2803 966 2306 
Q 966 1694 1177 1281 
Q 1388 869 1791 669 
Q 2194 469 2647 469 
Q 3041 469 3416 620 
Q 3791 772 3984 944 
L 3984 1797 
L 2638 1797 
z
" transform="scale(0.015625)"/>
       <path id="ArialMT-f3" d="M 213 1659 
Q 213 2581 725 3025 
Q 1153 3394 1769 3394 
Q 2453 3394 2887 2945 
Q 3322 2497 3322 1706 
Q 3322 1066 3130 698 
Q 2938 331 2570 128 
Q 2203 -75 1769 -75 
Q 1072 -75 642 372 
Q 213 819 213 1659 
z
M 791 1659 
Q 791 1022 1069 705 
Q 1347 388 1769 388 
Q 2188 388 2466 706 
Q 2744 1025 2744 1678 
Q 2744 2294 2464 2611 
Q 2184 2928 1769 2928 
Q 1347 2928 1069 2612 
Q 791 2297 791 1659 
z
M 1454 3731 
L 1869 4606 
L 2607 4606 
L 1919 3731 
L 1454 3731 
z
" transform="scale(0.015625)"/>
       <path id="ArialMT-69" d="M 425 3934 
L 425 4581 
L 988 4581 
L 988 3934 
L 425 3934 
z
M 425 0 
L 425 3319 
L 988 3319 
L 988 0 
L 425 0 
z
" transform="scale(0.015625)"/>
       <path id="ArialMT-20" transform="scale(0.015625)"/>
       <path id="ArialMT-64" d="M 2575 0 
L 2575 419 
Q 2259 -75 1647 -75 
Q 1250 -75 917 144 
Q 584 363 401 755 
Q 219 1147 219 1656 
Q 219 2153 384 2558 
Q 550 2963 881 3178 
Q 1213 3394 1622 3394 
Q 1922 3394 2156 3267 
Q 2391 3141 2538 2938 
L 2538 4581 
L 3097 4581 
L 3097 0 
L 2575 0 
z
M 797 1656 
Q 797 1019 1065 703 
Q 1334 388 1700 388 
Q 2069 388 2326 689 
Q 2584 991 2584 1609 
Q 2584 2291 2321 2609 
Q 2059 2928 1675 2928 
Q 1300 2928 1048 2622 
Q 797 2316 797 1656 
z
" transform="scale(0.015625)"/>
       <path id="ArialMT-1eef" d="M 3488 2666 
L 3488 3319 
L 4091 3319 
L 4091 2803 
Q 4091 2313 3978 2119 
Q 3691 1619 3100 1556 
L 3100 0 
L 2597 0 
L 2597 488 
Q 2209 -75 1544 -75 
Q 1253 -75 998 36 
Q 744 147 619 319 
Q 494 491 444 738 
Q 409 906 409 1263 
L 409 3319 
L 972 3319 
L 972 1478 
Q 972 1031 1006 884 
Q 1116 409 1656 409 
Q 1916 409 2136 540 
Q 2356 672 2447 894 
Q 2538 1116 2538 1541 
L 2538 3319 
L 3100 3319 
L 3100 1794 
Q 3497 1863 3694 2166 
Q 3781 2297 3781 2666 
L 3488 2666 
z
M 742 3809 
Q 739 4134 920 4328 
Q 1098 4522 1376 4522 
Q 1570 4522 1904 4353 
Q 2089 4259 2198 4259 
Q 2298 4259 2351 4314 
Q 2404 4369 2426 4531 
L 2833 4531 
Q 2823 4175 2653 3997 
Q 2483 3819 2220 3819 
Q 2023 3819 1701 3994 
Q 1492 4106 1395 4106 
Q 1289 4106 1223 4031 
Q 1154 3956 1158 3809 
L 742 3809 
z
" transform="scale(0.015625)"/>
       <path id="ArialMT-6c" d="M 409 0 
L 409 4581 
L 972 4581 
L 972 0 
L 409 0 
z
" transform="scale(0.015625)"/>
       <path id="ArialMT-1ec7" d="M 2694 1069 
L 3275 997 
Q 3138 488 2766 206 
Q 2394 -75 1816 -75 
Q 1088 -75 661 373 
Q 234 822 234 1631 
Q 234 2469 665 2931 
Q 1097 3394 1784 3394 
Q 2450 3394 2872 2941 
Q 3294 2488 3294 1666 
Q 3294 1616 3291 1516 
L 816 1516 
Q 847 969 1125 678 
Q 1403 388 1819 388 
Q 2128 388 2347 550 
Q 2566 713 2694 1069 
z
M 847 1978 
L 2700 1978 
Q 2663 2397 2488 2606 
Q 2219 2931 1791 2931 
Q 1403 2931 1139 2672 
Q 875 2413 847 1978 
z
M 1771 4263 
L 1418 3731 
L 774 3731 
L 1449 4606 
L 2049 4606 
L 2752 3731 
L 2115 3731 
L 1771 4263 
z
M 1486 -1016 
L 1486 -375 
L 2127 -375 
L 2127 -1016 
L 1486 -1016 
z
" transform="scale(0.015625)"/>
       <path id="ArialMT-75" d="M 2597 0 
L 2597 488 
Q 2209 -75 1544 -75 
Q 1250 -75 995 37 
Q 741 150 617 320 
Q 494 491 444 738 
Q 409 903 409 1263 
L 409 3319 
L 972 3319 
L 972 1478 
Q 972 1038 1006 884 
Q 1059 663 1231 536 
Q 1403 409 1656 409 
Q 1909 409 2131 539 
Q 2353 669 2445 892 
Q 2538 1116 2538 1541 
L 2538 3319 
L 3100 3319 
L 3100 0 
L 2597 0 
z
" transform="scale(0.015625)"/>
       <path id="ArialMT-74" d="M 1650 503 
L 1731 6 
Q 1494 -44 1306 -44 
Q 1000 -44 831 53 
Q 663 150 594 308 
Q 525 466 525 972 
L 525 2881 
L 113 2881 
L 113 3319 
L 525 3319 
L 525 4141 
L 1084 4478 
L 1084 3319 
L 1650 3319 
L 1650 2881 
L 1084 2881 
L 1084 941 
Q 1084 700 1114 631 
Q 1144 563 1211 522 
Q 1278 481 1403 481 
Q 1497 481 1650 503 
z
" transform="scale(0.015625)"/>
       <path id="ArialMT-68" d="M 422 0 
L 422 4581 
L 984 4581 
L 984 2938 
Q 1378 3394 1978 3394 
Q 2347 3394 2619 3248 
Q 2891 3103 3008 2847 
Q 3125 2591 3125 2103 
L 3125 0 
L 2563 0 
L 2563 2103 
Q 2563 2525 2380 2717 
Q 2197 2909 1863 2909 
Q 1613 2909 1392 2779 
Q 1172 2650 1078 2428 
Q 984 2206 984 1816 
L 984 0 
L 422 0 
z
" transform="scale(0.015625)"/>
       <path id="ArialMT-e0" d="M 2588 409 
Q 2275 144 1986 34 
Q 1697 -75 1366 -75 
Q 819 -75 525 192 
Q 231 459 231 875 
Q 231 1119 342 1320 
Q 453 1522 633 1644 
Q 813 1766 1038 1828 
Q 1203 1872 1538 1913 
Q 2219 1994 2541 2106 
Q 2544 2222 2544 2253 
Q 2544 2597 2384 2738 
Q 2169 2928 1744 2928 
Q 1347 2928 1158 2789 
Q 969 2650 878 2297 
L 328 2372 
Q 403 2725 575 2942 
Q 747 3159 1072 3276 
Q 1397 3394 1825 3394 
Q 2250 3394 2515 3294 
Q 2781 3194 2906 3042 
Q 3031 2891 3081 2659 
Q 3109 2516 3109 2141 
L 3109 1391 
Q 3109 606 3145 398 
Q 3181 191 3288 0 
L 2700 0 
Q 2613 175 2588 409 
z
M 2541 1666 
Q 2234 1541 1622 1453 
Q 1275 1403 1131 1340 
Q 988 1278 909 1158 
Q 831 1038 831 891 
Q 831 666 1001 516 
Q 1172 366 1500 366 
Q 1825 366 2078 508 
Q 2331 650 2450 897 
Q 2541 1088 2541 1459 
L 2541 1666 
z
M 2237 3731 
L 1784 3731 
L 1062 4606 
L 1815 4606 
L 2237 3731 
z
" transform="scale(0.015625)"/>
       <path id="ArialMT-6e" d="M 422 0 
L 422 3319 
L 928 3319 
L 928 2847 
Q 1294 3394 1984 3394 
Q 2284 3394 2536 3286 
Q 2788 3178 2913 3003 
Q 3038 2828 3088 2588 
Q 3119 2431 3119 2041 
L 3119 0 
L 2556 0 
L 2556 2019 
Q 2556 2363 2490 2533 
Q 2425 2703 2258 2804 
Q 2091 2906 1866 2906 
Q 1506 2906 1245 2678 
Q 984 2450 984 1813 
L 984 0 
L 422 0 
z
" transform="scale(0.015625)"/>
       <path id="ArialMT-63" d="M 2588 1216 
L 3141 1144 
Q 3050 572 2676 248 
Q 2303 -75 1759 -75 
Q 1078 -75 664 370 
Q 250 816 250 1647 
Q 250 2184 428 2587 
Q 606 2991 970 3192 
Q 1334 3394 1763 3394 
Q 2303 3394 2647 3120 
Q 2991 2847 3088 2344 
L 2541 2259 
Q 2463 2594 2264 2762 
Q 2066 2931 1784 2931 
Q 1359 2931 1093 2626 
Q 828 2322 828 1663 
Q 828 994 1084 691 
Q 1341 388 1753 388 
Q 2084 388 2306 591 
Q 2528 794 2588 1216 
z
" transform="scale(0.015625)"/>
       <path id="ArialMT-f4" d="M 213 1659 
Q 213 2581 725 3025 
Q 1153 3394 1769 3394 
Q 2453 3394 2887 2945 
Q 3322 2497 3322 1706 
Q 3322 1066 3130 698 
Q 2938 331 2570 128 
Q 2203 -75 1769 -75 
Q 1072 -75 642 372 
Q 213 819 213 1659 
z
M 791 1659 
Q 791 1022 1069 705 
Q 1347 388 1769 388 
Q 2188 388 2466 706 
Q 2744 1025 2744 1678 
Q 2744 2294 2464 2611 
Q 2184 2928 1769 2928 
Q 1347 2928 1069 2612 
Q 791 2297 791 1659 
z
M 1779 4263 
L 1426 3731 
L 782 3731 
L 1457 4606 
L 2057 4606 
L 2760 3731 
L 2123 3731 
L 1779 4263 
z
" transform="scale(0.015625)"/>
       <path id="ArialMT-67" d="M 319 -275 
L 866 -356 
Q 900 -609 1056 -725 
Q 1266 -881 1628 -881 
Q 2019 -881 2231 -725 
Q 2444 -569 2519 -288 
Q 2563 -116 2559 434 
Q 2191 0 1641 0 
Q 956 0 581 494 
Q 206 988 206 1678 
Q 206 2153 378 2554 
Q 550 2956 876 3175 
Q 1203 3394 1644 3394 
Q 2231 3394 2613 2919 
L 2613 3319 
L 3131 3319 
L 3131 450 
Q 3131 -325 2973 -648 
Q 2816 -972 2473 -1159 
Q 2131 -1347 1631 -1347 
Q 1038 -1347 672 -1080 
Q 306 -813 319 -275 
z
M 784 1719 
Q 784 1066 1043 766 
Q 1303 466 1694 466 
Q 2081 466 2343 764 
Q 2606 1063 2606 1700 
Q 2606 2309 2336 2618 
Q 2066 2928 1684 2928 
Q 1309 2928 1046 2623 
Q 784 2319 784 1719 
z
" transform="scale(0.015625)"/>
      </defs>
      <use xlink:href="#ArialMT-47"/>
      <use xlink:href="#ArialMT-f3" transform="translate(77.783203 0)"/>
      <use xlink:href="#ArialMT-69" transform="translate(133.398438 0)"/>
      <use xlink:href="#ArialMT-20" transform="translate(155.615234 0)"/>
      <use xlink:href="#ArialMT-64" transform="translate(183.398438 0)"/>
      <use xlink:href="#ArialMT-1eef" transform="translate(239.013672 0)"/>
      <use xlink:href="#ArialMT-20" transform="translate(305.957031 0)"/>
      <use xlink:href="#ArialMT-6c" transform="translate(333.740234 0)"/>
      <use xlink:href="#ArialMT-69" transform="translate(355.957031 0)"/>
      <use xlink:href="#ArialMT-1ec7" transform="translate(378.173828 0)"/>
      <use xlink:href="#ArialMT-75" transform="translate(433.789062 0)"/>
      <use xlink:href="#ArialMT-20" transform="translate(489.404297 0)"/>
      <use xlink:href="#ArialMT-74" transform="translate(517.1875 0)"/>
      <use xlink:href="#ArialMT-68" transform="translate(544.970703 0)"/>
      <use xlink:href="#ArialMT-e0" transform="translate(600.585938 0)"/>
      <use xlink:href="#ArialMT-6e" transform="translate(656.201172 0)"/>
      <use xlink:href="#ArialMT-68" transform="translate(711.816406 0)"/>
      <use xlink:href="#ArialMT-20" transform="translate(767.431641 0)"/>
      <use xlink:href="#ArialMT-63" transform="translate(795.214844 0)"/>
      <use xlink:href="#ArialMT-f4" transform="translate(845.214844 0)"/>
      <use xlink:href="#ArialMT-6e" transform="translate(900.830078 0)"/>
      <use xlink:href="#ArialMT-67" transform="translate(956.445312 0)"/>
     </g>
    </g>
    <g id="PathCollection_4">
     <g>
      <use xlink:href="#m5349bf4507" x="268.3175" y="122.5045" style="fill: #c0392b; stroke: #c0392b; stroke-width: 5"/>
     </g>
    </g>
    <g id="text_9">
     <!-- Khoảng trống dữ liệu (Thất thoát) -->
     <g style="fill: #262626" transform="translate(297.1175 126.7045) scale(0.16 -0.16)">
      <defs>
       <path id="ArialMT-4b" d="M 469 0 
L 469 4581 
L 1075 4581 
L 1075 2309 
L 3350 4581 
L 4172 4581 
L 2250 2725 
L 4256 0 
L 3456 0 
L 1825 2319 
L 1075 1588 
L 1075 0 
L 469 0 
z
" transform="scale(0.015625)"/>
       <path id="ArialMT-6f" d="M 213 1659 
Q 213 2581 725 3025 
Q 1153 3394 1769 3394 
Q 2453 3394 2887 2945 
Q 3322 2497 3322 1706 
Q 3322 1066 3130 698 
Q 2938 331 2570 128 
Q 2203 -75 1769 -75 
Q 1072 -75 642 372 
Q 213 819 213 1659 
z
M 791 1659 
Q 791 1022 1069 705 
Q 1347 388 1769 388 
Q 2188 388 2466 706 
Q 2744 1025 2744 1678 
Q 2744 2294 2464 2611 
Q 2184 2928 1769 2928 
Q 1347 2928 1069 2612 
Q 791 2297 791 1659 
z
" transform="scale(0.015625)"/>
       <path id="ArialMT-1ea3" d="M 2588 409 
Q 2275 144 1986 34 
Q 1697 -75 1366 -75 
Q 819 -75 525 192 
Q 231 459 231 875 
Q 231 1119 342 1320 
Q 453 1522 633 1644 
Q 813 1766 1038 1828 
Q 1203 1872 1538 1913 
Q 2219 1994 2541 2106 
Q 2544 2222 2544 2253 
Q 2544 2597 2384 2738 
Q 2169 2928 1744 2928 
Q 1347 2928 1158 2789 
Q 969 2650 878 2297 
L 328 2372 
Q 403 2725 575 2942 
Q 747 3159 1072 3276 
Q 1397 3394 1825 3394 
Q 2250 3394 2515 3294 
Q 2781 3194 2906 3042 
Q 3031 2891 3081 2659 
Q 3109 2516 3109 2141 
L 3109 1391 
Q 3109 606 3145 398 
Q 3181 191 3288 0 
L 2700 0 
Q 2613 175 2588 409 
z
M 2541 1666 
Q 2234 1541 1622 1453 
Q 1275 1403 1131 1340 
Q 988 1278 909 1158 
Q 831 1038 831 891 
Q 831 666 1001 516 
Q 1172 366 1500 366 
Q 1825 366 2078 508 
Q 2331 650 2450 897 
Q 2541 1088 2541 1459 
L 2541 1666 
z
M 1654 4106 
Q 1832 4125 1882 4141 
Q 2048 4197 2051 4316 
Q 2054 4388 1963 4438 
Q 1832 4509 1548 4509 
Q 1451 4509 1254 4497 
L 1219 4816 
Q 1341 4841 1669 4838 
Q 2054 4834 2298 4713 
Q 2566 4581 2573 4347 
Q 2585 3959 2004 3888 
L 2004 3731 
L 1654 3731 
L 1654 4106 
z
" transform="scale(0.015625)"/>
       <path id="ArialMT-72" d="M 416 0 
L 416 3319 
L 922 3319 
L 922 2816 
Q 1116 3169 1280 3281 
Q 1444 3394 1641 3394 
Q 1925 3394 2219 3213 
L 2025 2691 
Q 1819 2813 1613 2813 
Q 1428 2813 1281 2702 
Q 1134 2591 1072 2394 
Q 978 2094 978 1738 
L 978 0 
L 416 0 
z
" transform="scale(0.015625)"/>
       <path id="ArialMT-1ed1" d="M 213 1659 
Q 213 2581 725 3025 
Q 1153 3394 1769 3394 
Q 2453 3394 2887 2945 
Q 3322 2497 3322 1706 
Q 3322 1066 3130 698 
Q 2938 331 2570 128 
Q 2203 -75 1769 -75 
Q 1072 -75 642 372 
Q 213 819 213 1659 
z
M 791 1659 
Q 791 1022 1069 705 
Q 1347 388 1769 388 
Q 2188 388 2466 706 
Q 2744 1025 2744 1678 
Q 2744 2294 2464 2611 
Q 2184 2928 1769 2928 
Q 1347 2928 1069 2612 
Q 791 2297 791 1659 
z
M 1779 4263 
L 1426 3731 
L 782 3731 
L 1457 4606 
L 2057 4606 
L 2760 3731 
L 2123 3731 
L 1779 4263 
z
M 1874 5709 
L 2628 5709 
L 1906 4834 
L 1453 4834 
L 1874 5709 
z
" transform="scale(0.015625)"/>
       <path id="ArialMT-28" d="M 1497 -1347 
Q 1031 -759 709 28 
Q 388 816 388 1659 
Q 388 2403 628 3084 
Q 909 3875 1497 4659 
L 1900 4659 
Q 1522 4009 1400 3731 
Q 1209 3300 1100 2831 
Q 966 2247 966 1656 
Q 966 153 1900 -1347 
L 1497 -1347 
z
" transform="scale(0.015625)"/>
       <path id="ArialMT-54" d="M 1659 0 
L 1659 4041 
L 150 4041 
L 150 4581 
L 3781 4581 
L 3781 4041 
L 2266 4041 
L 2266 0 
L 1659 0 
z
" transform="scale(0.015625)"/>
       <path id="ArialMT-1ea5" d="M 2588 409 
Q 2275 144 1986 34 
Q 1697 -75 1366 -75 
Q 819 -75 525 192 
Q 231 459 231 875 
Q 231 1119 342 1320 
Q 453 1522 633 1644 
Q 813 1766 1038 1828 
Q 1203 1872 1538 1913 
Q 2219 1994 2541 2106 
Q 2544 2222 2544 2253 
Q 2544 2597 2384 2738 
Q 2169 2928 1744 2928 
Q 1347 2928 1158 2789 
Q 969 2650 878 2297 
L 328 2372 
Q 403 2725 575 2942 
Q 747 3159 1072 3276 
Q 1397 3394 1825 3394 
Q 2250 3394 2515 3294 
Q 2781 3194 2906 3042 
Q 3031 2891 3081 2659 
Q 3109 2516 3109 2141 
L 3109 1391 
Q 3109 606 3145 398 
Q 3181 191 3288 0 
L 2700 0 
Q 2613 175 2588 409 
z
M 2541 1666 
Q 2234 1541 1622 1453 
Q 1275 1403 1131 1340 
Q 988 1278 909 1158 
Q 831 1038 831 891 
Q 831 666 1001 516 
Q 1172 366 1500 366 
Q 1825 366 2078 508 
Q 2331 650 2450 897 
Q 2541 1088 2541 1459 
L 2541 1666 
z
M 1771 4263 
L 1418 3731 
L 774 3731 
L 1449 4606 
L 2049 4606 
L 2752 3731 
L 2115 3731 
L 1771 4263 
z
M 1866 5709 
L 2620 5709 
L 1898 4834 
L 1445 4834 
L 1866 5709 
z
" transform="scale(0.015625)"/>
       <path id="ArialMT-e1" d="M 2588 409 
Q 2275 144 1986 34 
Q 1697 -75 1366 -75 
Q 819 -75 525 192 
Q 231 459 231 875 
Q 231 1119 342 1320 
Q 453 1522 633 1644 
Q 813 1766 1038 1828 
Q 1203 1872 1538 1913 
Q 2219 1994 2541 2106 
Q 2544 2222 2544 2253 
Q 2544 2597 2384 2738 
Q 2169 2928 1744 2928 
Q 1347 2928 1158 2789 
Q 969 2650 878 2297 
L 328 2372 
Q 403 2725 575 2942 
Q 747 3159 1072 3276 
Q 1397 3394 1825 3394 
Q 2250 3394 2515 3294 
Q 2781 3194 2906 3042 
Q 3031 2891 3081 2659 
Q 3109 2516 3109 2141 
L 3109 1391 
Q 3109 606 3145 398 
Q 3181 191 3288 0 
L 2700 0 
Q 2613 175 2588 409 
z
M 2541 1666 
Q 2234 1541 1622 1453 
Q 1275 1403 1131 1340 
Q 988 1278 909 1158 
Q 831 1038 831 891 
Q 831 666 1001 516 
Q 1172 366 1500 366 
Q 1825 366 2078 508 
Q 2331 650 2450 897 
Q 2541 1088 2541 1459 
L 2541 1666 
z
M 1446 3731 
L 1861 4606 
L 2599 4606 
L 1911 3731 
L 1446 3731 
z
" transform="scale(0.015625)"/>
       <path id="ArialMT-29" d="M 791 -1347 
L 388 -1347 
Q 1322 153 1322 1656 
Q 1322 2244 1188 2822 
Q 1081 3291 891 3722 
Q 769 4003 388 4659 
L 791 4659 
Q 1378 3875 1659 3084 
Q 1900 2403 1900 1659 
Q 1900 816 1576 28 
Q 1253 -759 791 -1347 
z
" transform="scale(0.015625)"/>
      </defs>
      <use xlink:href="#ArialMT-4b"/>
      <use xlink:href="#ArialMT-68" transform="translate(66.699219 0)"/>
      <use xlink:href="#ArialMT-6f" transform="translate(122.314453 0)"/>
      <use xlink:href="#ArialMT-1ea3" transform="translate(177.929688 0)"/>
      <use xlink:href="#ArialMT-6e" transform="translate(233.544922 0)"/>
      <use xlink:href="#ArialMT-67" transform="translate(289.160156 0)"/>
      <use xlink:href="#ArialMT-20" transform="translate(344.775391 0)"/>
      <use xlink:href="#ArialMT-74" transform="translate(372.558594 0)"/>
      <use xlink:href="#ArialMT-72" transform="translate(400.341797 0)"/>
      <use xlink:href="#ArialMT-1ed1" transform="translate(433.642578 0)"/>
      <use xlink:href="#ArialMT-6e" transform="translate(489.257812 0)"/>
      <use xlink:href="#ArialMT-67" transform="translate(544.873047 0)"/>
      <use xlink:href="#ArialMT-20" transform="translate(600.488281 0)"/>
      <use xlink:href="#ArialMT-64" transform="translate(628.271484 0)"/>
      <use xlink:href="#ArialMT-1eef" transform="translate(683.886719 0)"/>
      <use xlink:href="#ArialMT-20" transform="translate(750.830078 0)"/>
      <use xlink:href="#ArialMT-6c" transform="translate(778.613281 0)"/>
      <use xlink:href="#ArialMT-69" transform="translate(800.830078 0)"/>
      <use xlink:href="#ArialMT-1ec7" transform="translate(823.046875 0)"/>
      <use xlink:href="#ArialMT-75" transform="translate(878.662109 0)"/>
      <use xlink:href="#ArialMT-20" transform="translate(934.277344 0)"/>
      <use xlink:href="#ArialMT-28" transform="translate(962.060547 0)"/>
      <use xlink:href="#ArialMT-54" transform="translate(995.361328 0)"/>
      <use xlink:href="#ArialMT-68" transform="translate(1056.445312 0)"/>
      <use xlink:href="#ArialMT-1ea5" transform="translate(1112.060547 0)"/>
      <use xlink:href="#ArialMT-74" transform="translate(1167.675781 0)"/>
      <use xlink:href="#ArialMT-20" transform="translate(1195.458984 0)"/>
      <use xlink:href="#ArialMT-74" transform="translate(1223.242188 0)"/>
      <use xlink:href="#ArialMT-68" transform="translate(1251.025391 0)"/>
      <use xlink:href="#ArialMT-6f" transform="translate(1306.640625 0)"/>
      <use xlink:href="#ArialMT-e1" transform="translate(1362.255859 0)"/>
      <use xlink:href="#ArialMT-74" transform="translate(1417.871094 0)"/>
      <use xlink:href="#ArialMT-29" transform="translate(1445.654297 0)"/>
     </g>
    </g>
    <g id="patch_8">
     <path d="M 565.73 126.7045 
L 597.73 126.7045 
L 597.73 115.5045 
L 565.73 115.5045 
z
" style="fill: #95a5a6; opacity: 0.3; stroke: #95a5a6; stroke-linejoin: miter"/>
    </g>
    <g id="text_10">
     <!-- Khu vực lõm sóng (Vào hầm) -->
     <g style="fill: #262626" transform="translate(610.53 126.7045) scale(0.16 -0.16)">
      <defs>
       <path id="ArialMT-76" d="M 1344 0 
L 81 3319 
L 675 3319 
L 1388 1331 
Q 1503 1009 1600 663 
Q 1675 925 1809 1294 
L 2547 3319 
L 3125 3319 
L 1869 0 
L 1344 0 
z
" transform="scale(0.015625)"/>
       <path id="ArialMT-1ef1" d="M 3488 2666 
L 3488 3319 
L 4091 3319 
L 4091 2803 
Q 4091 2313 3978 2119 
Q 3691 1619 3100 1556 
L 3100 0 
L 2597 0 
L 2597 488 
Q 2209 -75 1544 -75 
Q 1253 -75 998 36 
Q 744 147 619 319 
Q 494 491 444 738 
Q 409 906 409 1263 
L 409 3319 
L 972 3319 
L 972 1478 
Q 972 1031 1006 884 
Q 1116 409 1656 409 
Q 1916 409 2136 540 
Q 2356 672 2447 894 
Q 2538 1116 2538 1541 
L 2538 3319 
L 3100 3319 
L 3100 1794 
Q 3497 1863 3694 2166 
Q 3781 2297 3781 2666 
L 3488 2666 
z
M 1334 -1016 
L 1334 -375 
L 1975 -375 
L 1975 -1016 
L 1334 -1016 
z
" transform="scale(0.015625)"/>
       <path id="ArialMT-f5" d="M 213 1659 
Q 213 2581 725 3025 
Q 1153 3394 1769 3394 
Q 2453 3394 2887 2945 
Q 3322 2497 3322 1706 
Q 3322 1066 3130 698 
Q 2938 331 2570 128 
Q 2203 -75 1769 -75 
Q 1072 -75 642 372 
Q 213 819 213 1659 
z
M 791 1659 
Q 791 1022 1069 705 
Q 1347 388 1769 388 
Q 2188 388 2466 706 
Q 2744 1025 2744 1678 
Q 2744 2294 2464 2611 
Q 2184 2928 1769 2928 
Q 1347 2928 1069 2612 
Q 791 2297 791 1659 
z
M 726 3809 
Q 723 4134 904 4328 
Q 1082 4522 1360 4522 
Q 1554 4522 1888 4353 
Q 2073 4259 2182 4259 
Q 2282 4259 2335 4314 
Q 2388 4369 2410 4531 
L 2817 4531 
Q 2807 4175 2637 3997 
Q 2467 3819 2204 3819 
Q 2007 3819 1685 3994 
Q 1476 4106 1379 4106 
Q 1273 4106 1207 4031 
Q 1138 3956 1142 3809 
L 726 3809 
z
" transform="scale(0.015625)"/>
       <path id="ArialMT-6d" d="M 422 0 
L 422 3319 
L 925 3319 
L 925 2853 
Q 1081 3097 1340 3245 
Q 1600 3394 1931 3394 
Q 2300 3394 2536 3241 
Q 2772 3088 2869 2813 
Q 3263 3394 3894 3394 
Q 4388 3394 4653 3120 
Q 4919 2847 4919 2278 
L 4919 0 
L 4359 0 
L 4359 2091 
Q 4359 2428 4304 2576 
Q 4250 2725 4106 2815 
Q 3963 2906 3769 2906 
Q 3419 2906 3187 2673 
Q 2956 2441 2956 1928 
L 2956 0 
L 2394 0 
L 2394 2156 
Q 2394 2531 2256 2718 
Q 2119 2906 1806 2906 
Q 1569 2906 1367 2781 
Q 1166 2656 1075 2415 
Q 984 2175 984 1722 
L 984 0 
L 422 0 
z
" transform="scale(0.015625)"/>
       <path id="ArialMT-73" d="M 197 991 
L 753 1078 
Q 800 744 1014 566 
Q 1228 388 1613 388 
Q 2000 388 2187 545 
Q 2375 703 2375 916 
Q 2375 1106 2209 1216 
Q 2094 1291 1634 1406 
Q 1016 1563 777 1677 
Q 538 1791 414 1992 
Q 291 2194 291 2438 
Q 291 2659 392 2848 
Q 494 3038 669 3163 
Q 800 3259 1026 3326 
Q 1253 3394 1513 3394 
Q 1903 3394 2198 3281 
Q 2494 3169 2634 2976 
Q 2775 2784 2828 2463 
L 2278 2388 
Q 2241 2644 2061 2787 
Q 1881 2931 1553 2931 
Q 1166 2931 1000 2803 
Q 834 2675 834 2503 
Q 834 2394 903 2306 
Q 972 2216 1119 2156 
Q 1203 2125 1616 2013 
Q 2213 1853 2448 1751 
Q 2684 1650 2818 1456 
Q 2953 1263 2953 975 
Q 2953 694 2789 445 
Q 2625 197 2315 61 
Q 2006 -75 1616 -75 
Q 969 -75 630 194 
Q 291 463 197 991 
z
" transform="scale(0.015625)"/>
       <path id="ArialMT-56" d="M 1803 0 
L 28 4581 
L 684 4581 
L 1875 1253 
Q 2019 853 2116 503 
Q 2222 878 2363 1253 
L 3600 4581 
L 4219 4581 
L 2425 0 
L 1803 0 
z
" transform="scale(0.015625)"/>
       <path id="ArialMT-1ea7" d="M 2588 409 
Q 2275 144 1986 34 
Q 1697 -75 1366 -75 
Q 819 -75 525 192 
Q 231 459 231 875 
Q 231 1119 342 1320 
Q 453 1522 633 1644 
Q 813 1766 1038 1828 
Q 1203 1872 1538 1913 
Q 2219 1994 2541 2106 
Q 2544 2222 2544 2253 
Q 2544 2597 2384 2738 
Q 2169 2928 1744 2928 
Q 1347 2928 1158 2789 
Q 969 2650 878 2297 
L 328 2372 
Q 403 2725 575 2942 
Q 747 3159 1072 3276 
Q 1397 3394 1825 3394 
Q 2250 3394 2515 3294 
Q 2781 3194 2906 3042 
Q 3031 2891 3081 2659 
Q 3109 2516 3109 2141 
L 3109 1391 
Q 3109 606 3145 398 
Q 3181 191 3288 0 
L 2700 0 
Q 2613 175 2588 409 
z
M 2541 1666 
Q 2234 1541 1622 1453 
Q 1275 1403 1131 1340 
Q 988 1278 909 1158 
Q 831 1038 831 891 
Q 831 666 1001 516 
Q 1172 366 1500 366 
Q 1825 366 2078 508 
Q 2331 650 2450 897 
Q 2541 1088 2541 1459 
L 2541 1666 
z
M 1771 4263 
L 1418 3731 
L 774 3731 
L 1449 4606 
L 2049 4606 
L 2752 3731 
L 2115 3731 
L 1771 4263 
z
M 2050 4834 
L 1597 4834 
L 875 5709 
L 1628 5709 
L 2050 4834 
z
" transform="scale(0.015625)"/>
      </defs>
      <use xlink:href="#ArialMT-4b"/>
      <use xlink:href="#ArialMT-68" transform="translate(66.699219 0)"/>
      <use xlink:href="#ArialMT-75" transform="translate(122.314453 0)"/>
      <use xlink:href="#ArialMT-20" transform="translate(177.929688 0)"/>
      <use xlink:href="#ArialMT-76" transform="translate(205.712891 0)"/>
      <use xlink:href="#ArialMT-1ef1" transform="translate(255.712891 0)"/>
      <use xlink:href="#ArialMT-63" transform="translate(322.65625 0)"/>
      <use xlink:href="#ArialMT-20" transform="translate(372.65625 0)"/>
      <use xlink:href="#ArialMT-6c" transform="translate(400.439453 0)"/>
      <use xlink:href="#ArialMT-f5" transform="translate(422.65625 0)"/>
      <use xlink:href="#ArialMT-6d" transform="translate(478.271484 0)"/>
      <use xlink:href="#ArialMT-20" transform="translate(561.572266 0)"/>
      <use xlink:href="#ArialMT-73" transform="translate(589.355469 0)"/>
      <use xlink:href="#ArialMT-f3" transform="translate(639.355469 0)"/>
      <use xlink:href="#ArialMT-6e" transform="translate(694.970703 0)"/>
      <use xlink:href="#ArialMT-67" transform="translate(750.585938 0)"/>
      <use xlink:href="#ArialMT-20" transform="translate(806.201172 0)"/>
      <use xlink:href="#ArialMT-28" transform="translate(833.984375 0)"/>
      <use xlink:href="#ArialMT-56" transform="translate(867.285156 0)"/>
      <use xlink:href="#ArialMT-e0" transform="translate(933.984375 0)"/>
      <use xlink:href="#ArialMT-6f" transform="translate(989.599609 0)"/>
      <use xlink:href="#ArialMT-20" transform="translate(1045.214844 0)"/>
      <use xlink:href="#ArialMT-68" transform="translate(1072.998047 0)"/>
      <use xlink:href="#ArialMT-1ea7" transform="translate(1128.613281 0)"/>
      <use xlink:href="#ArialMT-6d" transform="translate(1184.228516 0)"/>
      <use xlink:href="#ArialMT-29" transform="translate(1267.529297 0)"/>
     </g>
    </g>
   </g>
  </g>
 </g>
 <defs>
  <clipPath id="p96a9e51fae">
   <rect x="69.61" y="7.2" width="693.03" height="64.88"/>
  </clipPath>
 </defs>
</svg>
